<svg width="300" height="300" viewBox="0 0 300 300" fill="none" xmlns="http://www.w3.org/2000/svg">
<g clip-path="url(#clip0_250_5)">
<rect width="300" height="300" fill="white"/>
<rect width="300" height="300" fill="#B2E4A0"/>
<path d="M22.1666 210V91H76.2266C89.1466 91 100.537 93.4933 110.397 98.48C120.257 103.353 127.963 110.21 133.517 119.05C139.07 127.89 141.847 138.373 141.847 150.5C141.847 162.513 139.07 172.997 133.517 181.95C127.963 190.79 120.257 197.703 110.397 202.69C100.537 207.563 89.1466 210 76.2266 210H22.1666ZM49.7066 187.39H74.8666C82.8 187.39 89.6566 185.917 95.4366 182.97C101.33 179.91 105.863 175.603 109.037 170.05C112.323 164.497 113.967 157.98 113.967 150.5C113.967 142.907 112.323 136.39 109.037 130.95C105.863 125.397 101.33 121.147 95.4366 118.2C89.6566 115.14 82.8 113.61 74.8666 113.61H49.7066V187.39ZM220.416 212.04C211.009 212.04 202.283 210.51 194.236 207.45C186.303 204.39 179.389 200.083 173.496 194.53C167.716 188.977 163.183 182.46 159.896 174.98C156.723 167.5 155.136 159.34 155.136 150.5C155.136 141.66 156.723 133.5 159.896 126.02C163.183 118.54 167.773 112.023 173.666 106.47C179.559 100.917 186.473 96.61 194.406 93.55C202.339 90.49 210.953 88.96 220.246 88.96C229.653 88.96 238.266 90.49 246.086 93.55C254.019 96.61 260.876 100.917 266.656 106.47C272.549 112.023 277.139 118.54 280.426 126.02C283.713 133.387 285.356 141.547 285.356 150.5C285.356 159.34 283.713 167.557 280.426 175.15C277.139 182.63 272.549 189.147 266.656 194.7C260.876 200.14 254.019 204.39 246.086 207.45C238.266 210.51 229.709 212.04 220.416 212.04ZM220.246 188.58C225.573 188.58 230.446 187.673 234.866 185.86C239.399 184.047 243.366 181.44 246.766 178.04C250.166 174.64 252.773 170.617 254.586 165.97C256.513 161.323 257.476 156.167 257.476 150.5C257.476 144.833 256.513 139.677 254.586 135.03C252.773 130.383 250.166 126.36 246.766 122.96C243.479 119.56 239.569 116.953 235.036 115.14C230.503 113.327 225.573 112.42 220.246 112.42C214.919 112.42 209.989 113.327 205.456 115.14C201.036 116.953 197.126 119.56 193.726 122.96C190.326 126.36 187.663 130.383 185.736 135.03C183.923 139.677 183.016 144.833 183.016 150.5C183.016 156.053 183.923 161.21 185.736 165.97C187.663 170.617 190.269 174.64 193.556 178.04C196.956 181.44 200.923 184.047 205.456 185.86C209.989 187.673 214.919 188.58 220.246 188.58Z" fill="black"/>
</g>
<defs>
<clipPath id="clip0_250_5">
<rect width="300" height="300" fill="white"/>
</clipPath>
</defs>
</svg>
